<?xml version="1.0" encoding="UTF-8" standalone="no"?>
<!DOCTYPE svg PUBLIC "-//W3C//DTD SVG 1.1//EN" "http://www.w3.org/Graphics/SVG/1.1/DTD/svg11.dtd">
<svg width="100%" height="100%" viewBox="0 0 3877 850" version="1.1" xmlns="http://www.w3.org/2000/svg" xmlns:xlink="http://www.w3.org/1999/xlink" xml:space="preserve" xmlns:serif="http://www.serif.com/" style="fill-rule:evenodd;clip-rule:evenodd;stroke-linejoin:round;stroke-miterlimit:2;">
    <g id="Artboard1" transform="matrix(5.59584,0,0,1.0625,-3876.91,-637.5)">
        <rect x="692.82" y="600" width="692.82" height="800" style="fill:none;"/>
        <g transform="matrix(0.178699,0,0,0.943502,576.627,56.4983)">
            <g id="bg" transform="matrix(1,0,0,0.997506,-0.179682,2.49377)">
                <path d="M692.82,800L1039.23,600L1385.64,800.008L1385.64,1200L1039.23,1400L692.827,1200L692.82,800Z" style="fill:rgb(140,43,229);"/>
            </g>
            <g transform="matrix(0.866051,-0.498768,1.00003,0.575927,-0.210168,2.4645)">
                <rect x="-400" y="1039.23" width="400" height="346.41" style="fill:rgb(140,43,229);"/>
            </g>
            <g transform="matrix(0.866051,-0.498768,5.55128e-17,1.15185,-0.210168,2.4645)">
                <rect x="1200" y="1385.64" width="400" height="346.41" style="fill:rgb(179,43,229);"/>
            </g>
            <g transform="matrix(0.866051,0.498768,-5.55128e-17,1.15185,-0.210168,2.4645)">
                <rect x="800" y="346.41" width="400" height="346.41" style="fill:rgb(124,16,187);"/>
            </g>
        </g>
        <g transform="matrix(0.773812,2.35294,8.54331e-18,4.70588,712.78,924.699)">
            <path d="M0,5.68L0.003,0L22.561,0.045L22.636,22.621L0,22.618L0.033,8.46L16.996,8.493L16.954,5.632L0,5.68ZM16.987,16.968L16.99,14.074L5.667,14.11L5.685,16.959L16.987,16.968Z" style="fill:white;"/>
            <path d="M25.367,31.059L25.367,25.379L47.925,25.424L48,48L25.364,47.997L25.4,33.839L42.357,33.872L42.315,31.011L25.367,31.059ZM42.348,42.347L42.354,39.453L31.033,39.492L31.051,42.338L42.348,42.347Z" style="fill:white;"/>
            <path d="M31.058,0.008L31.096,16.964L48,16.963L47.989,22.614L25.373,22.621L25.364,0L31.058,0.008Z" style="fill:white;fill-rule:nonzero;"/>
            <path d="M22.636,25.379L22.598,47.966L17.011,48L16.918,30.972L14.212,30.972L14.14,48L8.472,48L8.5,30.972L5.741,30.972L5.703,48L0.022,48L0,25.393L22.636,25.379Z" style="fill:white;fill-rule:nonzero;"/>
        </g>
        <g transform="matrix(0.122741,-0.373219,6.81348e-18,0.746438,560.234,250.733)">
            <g transform="matrix(186.362,0,0,186.362,1689.35,2136.98)">
                <path d="M0.567,-0.286C0.544,-0.183 0.476,-0.135 0.391,-0.135C0.285,-0.135 0.2,-0.221 0.2,-0.335C0.2,-0.449 0.285,-0.534 0.391,-0.534C0.477,-0.534 0.545,-0.487 0.566,-0.387L0.728,-0.428C0.696,-0.587 0.556,-0.685 0.391,-0.685C0.192,-0.685 0.035,-0.531 0.035,-0.335C0.035,-0.138 0.192,0.015 0.391,0.015C0.563,0.015 0.698,-0.083 0.729,-0.251L0.567,-0.286Z" style="fill:rgb(235,235,235);fill-rule:nonzero;"/>
            </g>
            <g transform="matrix(186.362,0,0,186.362,1831.73,2136.98)">
                <path d="M0.058,-0.67L0.058,-0L0.323,-0C0.544,-0 0.69,-0.136 0.69,-0.335C0.69,-0.534 0.544,-0.67 0.323,-0.67L0.058,-0.67ZM0.223,-0.143L0.223,-0.527L0.317,-0.527C0.442,-0.527 0.524,-0.451 0.524,-0.335C0.524,-0.219 0.442,-0.143 0.317,-0.143L0.223,-0.143Z" style="fill:rgb(235,235,235);fill-rule:nonzero;"/>
            </g>
            <g transform="matrix(186.362,0,0,186.362,1966.84,2136.98)">
                <path d="M0.717,-0L0.448,-0.383L0.689,-0.67L0.502,-0.67L0.223,-0.339L0.223,-0.67L0.058,-0.67L0.058,-0L0.223,-0L0.223,-0.115L0.341,-0.256L0.517,-0L0.717,-0Z" style="fill:rgb(235,235,235);fill-rule:nonzero;"/>
            </g>
        </g>
        <g transform="matrix(0.20635,0,0,0.941176,654.458,634.916)">
            <g transform="matrix(192,0,0,192,906.958,452.221)">
                <path d="M0.729,-0L0.449,-0.67L0.28,-0.67L0,-0L0.177,-0L0.224,-0.122L0.506,-0.122L0.553,-0L0.729,-0ZM0.451,-0.264L0.28,-0.264L0.365,-0.484L0.451,-0.264Z" style="fill:rgb(179,43,229);fill-rule:nonzero;"/>
            </g>
            <g transform="matrix(192,0,0,192,1038.61,452.221)">
                <path d="M0.967,-0.67L0.797,-0.67L0.68,-0.248L0.565,-0.67L0.408,-0.67L0.293,-0.248L0.176,-0.67L0.007,-0.67L0.198,-0L0.374,-0L0.487,-0.414L0.599,-0L0.776,-0L0.967,-0.67Z" style="fill:rgb(179,43,229);fill-rule:nonzero;"/>
            </g>
            <g transform="matrix(192,0,0,192,1222.1,452.221)">
                <path d="M0.321,-0.685C0.164,-0.685 0.056,-0.604 0.056,-0.474C0.056,-0.352 0.14,-0.302 0.236,-0.28L0.376,-0.25C0.424,-0.24 0.438,-0.221 0.438,-0.191C0.438,-0.15 0.401,-0.122 0.339,-0.122C0.272,-0.122 0.224,-0.152 0.207,-0.221L0.037,-0.188C0.055,-0.057 0.179,0.015 0.33,0.015C0.479,0.015 0.606,-0.059 0.606,-0.202C0.606,-0.308 0.538,-0.371 0.422,-0.397L0.283,-0.428C0.241,-0.437 0.229,-0.457 0.229,-0.484C0.229,-0.522 0.264,-0.552 0.319,-0.552C0.372,-0.552 0.424,-0.521 0.436,-0.458L0.598,-0.491C0.573,-0.613 0.467,-0.685 0.321,-0.685Z" style="fill:rgb(179,43,229);fill-rule:nonzero;"/>
            </g>
            <g transform="matrix(192,0,0,192,1390.68,452.221)">
                <path d="M0.311,-0.526L0.438,-0.526L0.438,-0.67L0.02,-0.67L0.02,-0.526L0.147,-0.526L0.147,-0.144L0.02,-0.144L0.02,-0L0.438,-0L0.438,-0.144L0.311,-0.144L0.311,-0.526Z" style="fill:rgb(179,43,229);fill-rule:nonzero;"/>
            </g>
            <g transform="matrix(192,0,0,192,1478.61,452.221)">
                <path d="M0.372,-0.517C0.309,-0.517 0.256,-0.494 0.218,-0.454L0.218,-0.502L0.058,-0.502L0.058,-0L0.218,-0L0.218,-0.233C0.218,-0.33 0.259,-0.373 0.322,-0.373C0.373,-0.373 0.408,-0.333 0.408,-0.274L0.408,-0L0.567,-0L0.567,-0.308C0.567,-0.434 0.489,-0.517 0.372,-0.517Z" style="fill:rgb(179,43,229);fill-rule:nonzero;"/>
            </g>
            <g transform="matrix(192,0,0,192,1597.27,452.221)">
                <path d="M0.393,-0.148C0.372,-0.136 0.342,-0.128 0.32,-0.128C0.278,-0.128 0.253,-0.149 0.253,-0.201L0.253,-0.375L0.401,-0.375L0.401,-0.502L0.253,-0.502L0.253,-0.67L0.093,-0.67L0.093,-0.502L0.002,-0.502L0.002,-0.375L0.093,-0.375L0.093,-0.185C0.093,-0.053 0.168,0.015 0.293,0.015C0.35,0.015 0.391,-0.001 0.43,-0.022L0.393,-0.148Z" style="fill:rgb(179,43,229);fill-rule:nonzero;"/>
            </g>
            <g transform="matrix(192,0,0,192,1678.74,452.221)">
                <path d="M0.55,-0.251C0.547,-0.415 0.433,-0.517 0.291,-0.517C0.145,-0.517 0.025,-0.409 0.025,-0.251C0.025,-0.092 0.145,0.015 0.29,0.015C0.405,0.015 0.496,-0.036 0.539,-0.142L0.397,-0.171C0.37,-0.122 0.327,-0.113 0.29,-0.113C0.236,-0.113 0.195,-0.15 0.182,-0.21L0.55,-0.21L0.55,-0.251ZM0.291,-0.387C0.337,-0.387 0.377,-0.362 0.392,-0.308L0.185,-0.308C0.2,-0.359 0.246,-0.387 0.291,-0.387Z" style="fill:rgb(179,43,229);fill-rule:nonzero;"/>
            </g>
            <g transform="matrix(192,0,0,192,1789.14,452.221)">
                <path d="M0.391,-0.509C0.309,-0.509 0.254,-0.466 0.218,-0.406L0.218,-0.502L0.058,-0.502L0.058,-0L0.218,-0L0.218,-0.157C0.218,-0.287 0.279,-0.345 0.391,-0.345L0.42,-0.345L0.427,-0.505C0.415,-0.508 0.405,-0.509 0.391,-0.509Z" style="fill:rgb(179,43,229);fill-rule:nonzero;"/>
            </g>
            <g transform="matrix(192,0,0,192,1874.71,452.221)">
                <path d="M0.246,-0.502L0.246,-0.581C0.246,-0.621 0.273,-0.643 0.311,-0.643C0.323,-0.643 0.339,-0.641 0.354,-0.636L0.388,-0.76C0.356,-0.773 0.323,-0.78 0.289,-0.78C0.168,-0.78 0.087,-0.705 0.087,-0.587L0.087,-0.502L0.015,-0.502L0.015,-0.375L0.087,-0.375L0.087,-0L0.246,-0L0.246,-0.375L0.384,-0.375L0.384,-0.502L0.246,-0.502Z" style="fill:rgb(179,43,229);fill-rule:nonzero;"/>
            </g>
            <g transform="matrix(192,0,0,192,1945.43,452.221)">
                <path d="M0.284,-0.517C0.164,-0.517 0.076,-0.456 0.054,-0.359L0.205,-0.328C0.213,-0.372 0.241,-0.391 0.289,-0.391C0.331,-0.391 0.36,-0.363 0.36,-0.321L0.36,-0.311L0.232,-0.311C0.098,-0.311 0.023,-0.247 0.023,-0.149C0.023,-0.05 0.098,0.015 0.21,0.015C0.277,0.015 0.325,-0.007 0.36,-0.037L0.36,-0L0.514,-0L0.514,-0.318C0.514,-0.446 0.425,-0.517 0.284,-0.517ZM0.255,-0.105C0.213,-0.105 0.185,-0.125 0.185,-0.157C0.185,-0.188 0.21,-0.209 0.25,-0.209L0.36,-0.209L0.36,-0.198C0.36,-0.142 0.31,-0.105 0.255,-0.105Z" style="fill:rgb(179,43,229);fill-rule:nonzero;"/>
            </g>
            <g transform="matrix(192,0,0,192,2052.18,452.221)">
                <path d="M0.299,-0.125C0.227,-0.125 0.179,-0.177 0.179,-0.251C0.179,-0.324 0.227,-0.377 0.299,-0.377C0.35,-0.377 0.391,-0.349 0.405,-0.288L0.555,-0.324C0.527,-0.442 0.421,-0.517 0.299,-0.517C0.149,-0.517 0.025,-0.409 0.025,-0.251C0.025,-0.092 0.149,0.015 0.299,0.015C0.424,0.015 0.53,-0.062 0.555,-0.181L0.408,-0.213C0.391,-0.152 0.35,-0.125 0.299,-0.125Z" style="fill:rgb(179,43,229);fill-rule:nonzero;"/>
            </g>
            <g transform="matrix(192,0,0,192,2163.54,452.221)">
                <path d="M0.55,-0.251C0.547,-0.415 0.433,-0.517 0.291,-0.517C0.145,-0.517 0.025,-0.409 0.025,-0.251C0.025,-0.092 0.145,0.015 0.29,0.015C0.405,0.015 0.496,-0.036 0.539,-0.142L0.397,-0.171C0.37,-0.122 0.327,-0.113 0.29,-0.113C0.236,-0.113 0.195,-0.15 0.182,-0.21L0.55,-0.21L0.55,-0.251ZM0.291,-0.387C0.337,-0.387 0.377,-0.362 0.392,-0.308L0.185,-0.308C0.2,-0.359 0.246,-0.387 0.291,-0.387Z" style="fill:rgb(179,43,229);fill-rule:nonzero;"/>
            </g>
            <g transform="matrix(192,0,0,192,2318.49,452.221)">
                <path d="M0.58,-0.142L0.223,-0.142L0.223,-0.268L0.548,-0.268L0.548,-0.402L0.223,-0.402L0.223,-0.528L0.577,-0.528L0.577,-0.67L0.058,-0.67L0.058,-0L0.58,-0L0.58,-0.142Z" style="fill:rgb(179,43,229);fill-rule:nonzero;"/>
            </g>
            <g transform="matrix(192,0,0,192,2438.49,452.221)">
                <path d="M0.372,-0.517C0.309,-0.517 0.256,-0.494 0.218,-0.454L0.218,-0.502L0.058,-0.502L0.058,-0L0.218,-0L0.218,-0.233C0.218,-0.33 0.259,-0.373 0.322,-0.373C0.373,-0.373 0.408,-0.333 0.408,-0.274L0.408,-0L0.567,-0L0.567,-0.308C0.567,-0.434 0.489,-0.517 0.372,-0.517Z" style="fill:rgb(179,43,229);fill-rule:nonzero;"/>
            </g>
            <g transform="matrix(192,0,0,192,2557.14,452.221)">
                <path d="M0.586,-0.77L0.426,-0.77L0.426,-0.459C0.388,-0.496 0.336,-0.517 0.27,-0.517C0.137,-0.517 0.025,-0.409 0.025,-0.251C0.025,-0.092 0.137,0.015 0.27,0.015C0.336,0.015 0.388,-0.006 0.426,-0.043L0.426,-0L0.586,-0L0.586,-0.77ZM0.303,-0.121C0.233,-0.121 0.182,-0.173 0.182,-0.251C0.182,-0.328 0.233,-0.381 0.303,-0.381C0.368,-0.381 0.426,-0.328 0.426,-0.251C0.426,-0.173 0.368,-0.121 0.303,-0.121Z" style="fill:rgb(179,43,229);fill-rule:nonzero;"/>
            </g>
            <g transform="matrix(192,0,0,192,2680.79,452.221)">
                <path d="M0.374,-0.517C0.308,-0.517 0.256,-0.496 0.218,-0.459L0.218,-0.502L0.058,-0.502L0.058,0.24L0.218,0.24L0.218,-0.043C0.256,-0.006 0.308,0.015 0.374,0.015C0.507,0.015 0.619,-0.092 0.619,-0.251C0.619,-0.409 0.507,-0.517 0.374,-0.517ZM0.341,-0.121C0.276,-0.121 0.218,-0.173 0.218,-0.251C0.218,-0.328 0.276,-0.381 0.341,-0.381C0.411,-0.381 0.462,-0.328 0.462,-0.251C0.462,-0.173 0.411,-0.121 0.341,-0.121Z" style="fill:rgb(179,43,229);fill-rule:nonzero;"/>
            </g>
            <g transform="matrix(192,0,0,192,2804.44,452.221)">
                <path d="M0.303,-0.515C0.151,-0.515 0.025,-0.409 0.025,-0.251C0.025,-0.092 0.151,0.014 0.303,0.014C0.452,0.014 0.578,-0.092 0.578,-0.251C0.578,-0.409 0.452,-0.515 0.303,-0.515ZM0.303,-0.121C0.238,-0.121 0.179,-0.172 0.179,-0.251C0.179,-0.329 0.238,-0.381 0.303,-0.381C0.365,-0.381 0.424,-0.329 0.424,-0.251C0.424,-0.172 0.365,-0.121 0.303,-0.121Z" style="fill:rgb(179,43,229);fill-rule:nonzero;"/>
            </g>
            <g transform="matrix(192,0,0,192,2920.22,452.221)">
                <path d="M0.146,-0.741C0.092,-0.741 0.054,-0.699 0.054,-0.65C0.054,-0.599 0.092,-0.561 0.146,-0.561C0.2,-0.561 0.239,-0.599 0.239,-0.65C0.239,-0.699 0.2,-0.741 0.146,-0.741ZM0.226,-0L0.226,-0.502L0.066,-0.502L0.066,-0L0.226,-0Z" style="fill:rgb(179,43,229);fill-rule:nonzero;"/>
            </g>
            <g transform="matrix(192,0,0,192,2976.28,452.221)">
                <path d="M0.372,-0.517C0.309,-0.517 0.256,-0.494 0.218,-0.454L0.218,-0.502L0.058,-0.502L0.058,-0L0.218,-0L0.218,-0.233C0.218,-0.33 0.259,-0.373 0.322,-0.373C0.373,-0.373 0.408,-0.333 0.408,-0.274L0.408,-0L0.567,-0L0.567,-0.308C0.567,-0.434 0.489,-0.517 0.372,-0.517Z" style="fill:rgb(179,43,229);fill-rule:nonzero;"/>
            </g>
            <g transform="matrix(192,0,0,192,3094.94,452.221)">
                <path d="M0.393,-0.148C0.372,-0.136 0.342,-0.128 0.32,-0.128C0.278,-0.128 0.253,-0.149 0.253,-0.201L0.253,-0.375L0.401,-0.375L0.401,-0.502L0.253,-0.502L0.253,-0.67L0.093,-0.67L0.093,-0.502L0.002,-0.502L0.002,-0.375L0.093,-0.375L0.093,-0.185C0.093,-0.053 0.168,0.015 0.293,0.015C0.35,0.015 0.391,-0.001 0.43,-0.022L0.393,-0.148Z" style="fill:rgb(179,43,229);fill-rule:nonzero;"/>
            </g>
            <g transform="matrix(192,0,0,192,3178.07,452.221)">
                <path d="M0.024,-0.131C0.041,-0.028 0.142,0.015 0.26,0.015C0.392,0.015 0.488,-0.043 0.488,-0.154C0.488,-0.228 0.444,-0.285 0.349,-0.305L0.231,-0.329C0.199,-0.336 0.193,-0.35 0.193,-0.364C0.193,-0.382 0.207,-0.403 0.25,-0.403C0.299,-0.403 0.329,-0.375 0.334,-0.344L0.48,-0.373C0.46,-0.46 0.377,-0.517 0.252,-0.517C0.125,-0.517 0.036,-0.45 0.036,-0.347C0.036,-0.268 0.089,-0.218 0.182,-0.201L0.284,-0.181C0.321,-0.174 0.334,-0.161 0.334,-0.144C0.334,-0.122 0.311,-0.104 0.269,-0.104C0.226,-0.104 0.187,-0.12 0.18,-0.163L0.024,-0.131Z" style="fill:rgb(179,43,229);fill-rule:nonzero;"/>
            </g>
        </g>
    </g>
</svg>
